<?xml version="1.0" encoding="utf-8"?>
<!-- Generator: Adobe Illustrator 18.1.1, SVG Export Plug-In . SVG Version: 6.00 Build 0)  -->
<svg version="1.1" id="Livello_1" xmlns="http://www.w3.org/2000/svg" xmlns:xlink="http://www.w3.org/1999/xlink" x="0px" y="0px"
	 viewBox="0 0 280 132.7" enable-background="new 0 0 280 132.7" xml:space="preserve">
<path fill="#005380" d="M117.8,64.5c0-3.9-0.4-7.4-1.2-10.5c-0.8-3.1-2-5.9-3.7-8.5c-2.8-4.1-6.3-7.4-10.6-9.7
	c-4.3-2.3-8.9-3.5-13.9-3.5c-4.2,0-8.1,0.8-11.6,2.4c-3.5,1.6-6.7,3.9-9.5,7c-2.6,2.8-4.7,6-6,9.5c-1.4,3.5-2,7.2-2,11.2
	c0,3.8,0.8,7.6,2.2,11.3c1.5,3.7,3.6,6.9,6.2,9.7c2.8,2.9,6,5.2,9.4,6.7c3.5,1.5,7.3,2.2,11.5,2.2c6.2,0,11.7-1.7,16.4-5
	c4.7-3.3,8.4-8.2,10.9-14.4l0.3-0.8h-12.5l-0.2,0.3c-1.6,2.8-3.7,5-6.3,6.5c-2.6,1.5-5.5,2.3-8.7,2.3c-4.4,0-8.3-1.4-11.6-4.2
	c-3.1-2.6-5.1-6.1-6-10.2h46.7V64.5z M71.5,56.4c1.2-3.9,3.3-7.1,6.2-9.5c3.1-2.5,6.8-3.7,11-3.7c4.1,0,7.7,1.2,10.6,3.6
	c2.8,2.3,4.8,5.5,6.1,9.6H71.5z"/>
<polygon fill="#005380" points="75,17.2 21.3,17.2 21.3,29 41.7,29 41.7,89.1 54.8,89.1 54.8,29 75,29 "/>
<polygon fill="#005380" points="134,89.2 121,89.2 121,35 134,35 152.4,53.4 167.5,38.4 167.5,56.1 153.2,70.3 152.9,70.7 134,52.2 
	"/>
<rect x="171.4" y="35.2" fill="#005380" width="13.1" height="53.7"/>
<rect x="172" y="16.1" transform="matrix(0.7071 -0.7072 0.7072 0.7071 36.3595 132.6569)" fill="#F29400" width="12.6" height="12.6"/>
<polygon fill="#F29400" points="186.7,35.1 186.7,35.2 213.6,62.1 222.4,53.2 204.2,35.1 "/>
<polygon fill="#005380" points="258,35.1 258.1,35.2 231.2,62.1 222.4,53.2 240.5,35.1 "/>
<polygon fill="#005380" points="186.7,89.1 186.7,89 213.6,62.1 222.4,70.9 204.2,89.1 "/>
<polygon fill="#F29400" points="258,89.1 258.1,89 231.2,62.1 222.4,70.9 240.5,89.1 "/>
<g>
	<path fill="#005380" d="M72.9,116c-0.8,0.3-2.2,0.7-4,0.7c-4.4,0-7.3-2.8-7.3-7.2c0-4.2,2.9-7.5,7.8-7.5c1.3,0,2.6,0.3,3.4,0.6
		l-0.6,2.7c-0.6-0.3-1.4-0.6-2.7-0.6c-2.7,0-4.3,2-4.3,4.6c0,2.9,1.9,4.5,4.3,4.5c1.2,0,2.1-0.3,2.8-0.6L72.9,116z"/>
	<path fill="#005380" d="M80.7,116.7c-4,0-7.1-2.7-7.1-7.3c0-4.6,3-7.5,7.3-7.5c4.2,0,7,3,7,7.2C88,114.4,84.3,116.7,80.7,116.7
		L80.7,116.7z M80.8,114.2c2,0,3.4-2,3.4-4.8c0-2.2-1-4.7-3.4-4.7c-2.5,0-3.5,2.5-3.5,4.8C77.3,112.1,78.7,114.2,80.8,114.2
		L80.8,114.2z"/>
	<path fill="#005380" d="M90.2,106.5c0-1.6-0.1-3-0.1-4.2h3l0.2,2.1h0.1c0.7-1.1,1.9-2.4,4.3-2.4c1.9,0,3.3,1,3.9,2.6h0.1
		c0.5-0.8,1.1-1.4,1.7-1.8c0.8-0.5,1.7-0.8,2.9-0.8c2.3,0,4.7,1.6,4.7,6.1v8.3h-3.5v-7.8c0-2.3-0.8-3.7-2.5-3.7
		c-1.2,0-2.1,0.9-2.5,1.9c-0.1,0.3-0.2,0.8-0.2,1.2v8.5h-3.5v-8.2c0-2-0.8-3.4-2.4-3.4c-1.3,0-2.2,1-2.6,2c-0.1,0.4-0.2,0.8-0.2,1.2
		v8.3h-3.5V106.5z"/>
	<path fill="#005380" d="M114,106.5c0-1.6-0.1-3-0.1-4.2h3l0.2,2.1h0.1c0.7-1.1,1.9-2.4,4.3-2.4c1.9,0,3.3,1,3.9,2.6h0.1
		c0.5-0.8,1.1-1.4,1.7-1.8c0.8-0.5,1.7-0.8,2.9-0.8c2.3,0,4.7,1.6,4.7,6.1v8.3h-3.5v-7.8c0-2.3-0.8-3.7-2.5-3.7
		c-1.2,0-2.1,0.9-2.5,1.9c-0.1,0.3-0.2,0.8-0.2,1.2v8.5h-3.5v-8.2c0-2-0.8-3.4-2.4-3.4c-1.3,0-2.2,1-2.6,2c-0.1,0.4-0.2,0.8-0.2,1.2
		v8.3H114V106.5z"/>
	<path fill="#005380" d="M150.5,112.2c0,1.7,0.1,3.1,0.1,4.2h-3.1l-0.2-2.1h-0.1c-0.6,1-2,2.4-4.5,2.4c-2.5,0-4.9-1.5-4.9-6.1v-8.3
		h3.6v7.7c0,2.3,0.8,3.9,2.6,3.9c1.4,0,2.4-1,2.7-1.9c0.1-0.3,0.2-0.7,0.2-1.1v-8.5h3.6V112.2z"/>
	<path fill="#005380" d="M153.6,106.5c0-1.6-0.1-3-0.1-4.2h3.1l0.2,2.1h0.1c0.6-1.1,2.2-2.4,4.5-2.4c2.5,0,5,1.6,5,6.1v8.4h-3.6v-8
		c0-2-0.8-3.6-2.7-3.6c-1.4,0-2.4,1-2.8,2.1c-0.1,0.3-0.2,0.7-0.2,1.1v8.3h-3.6V106.5z"/>
	<path fill="#005380" d="M171.2,100.3c-1.2,0-2-0.9-2-1.9c0-1.1,0.8-1.9,2-1.9c1.2,0,2,0.8,2,1.9
		C173.3,99.4,172.5,100.3,171.2,100.3L171.2,100.3z M169.5,116.4v-14.1h3.6v14.1H169.5z"/>
	<path fill="#005380" d="M186.5,116c-0.8,0.3-2.2,0.7-4,0.7c-4.4,0-7.3-2.8-7.3-7.2c0-4.2,2.9-7.5,7.8-7.5c1.3,0,2.6,0.3,3.4,0.6
		l-0.6,2.7c-0.6-0.3-1.4-0.6-2.7-0.6c-2.7,0-4.3,2-4.3,4.6c0,2.9,1.9,4.5,4.3,4.5c1.2,0,2.1-0.3,2.8-0.6L186.5,116z"/>
	<path fill="#005380" d="M199.4,113c0,1.3,0.1,2.5,0.2,3.4h-3.2l-0.3-1.6h-0.1c-0.8,1.1-2.3,1.9-4.2,1.9c-2.8,0-4.4-2.1-4.4-4.2
		c0-3.5,3.2-5.4,8.4-5.3V107c0-0.9-0.4-2.5-2.9-2.5c-1.4,0-2.8,0.4-3.8,1l-0.7-2.3c1-0.6,2.9-1.2,5.1-1.2c4.5,0,5.8,2.9,5.8,6V113z
		 M195.9,109.5c-2.5,0-4.9,0.5-4.9,2.6c0,1.4,0.9,2,2,2c1.4,0,2.5-0.9,2.8-1.9c0.1-0.3,0.1-0.5,0.1-0.8V109.5z"/>
	<path fill="#005380" d="M206.3,98.7v3.6h3.4v2.7h-3.4v6.2c0,1.7,0.5,2.6,1.8,2.6c0.6,0,1,0,1.4-0.1l0.1,2.7
		c-0.5,0.2-1.5,0.4-2.6,0.4c-1.3,0-2.4-0.4-3.1-1.2c-0.8-0.8-1.1-2.1-1.1-4V105h-2v-2.7h2v-2.6L206.3,98.7z"/>
	<path fill="#005380" d="M213.5,100.3c-1.2,0-2-0.9-2-1.9c0-1.1,0.8-1.9,2-1.9c1.2,0,2,0.8,2,1.9
		C215.5,99.4,214.7,100.3,213.5,100.3L213.5,100.3z M211.7,116.4v-14.1h3.6v14.1H211.7z"/>
	<path fill="#005380" d="M224.6,116.7c-4,0-7.1-2.7-7.1-7.3c0-4.6,3-7.5,7.3-7.5c4.2,0,7,3,7,7.2
		C231.8,114.4,228.1,116.7,224.6,116.7L224.6,116.7z M224.7,114.2c2,0,3.4-2,3.4-4.8c0-2.2-1-4.7-3.4-4.7c-2.5,0-3.5,2.5-3.5,4.8
		C221.2,112.1,222.5,114.2,224.7,114.2L224.7,114.2z"/>
	<path fill="#005380" d="M234,106.5c0-1.6-0.1-3-0.1-4.2h3.1l0.2,2.1h0.1c0.6-1.1,2.2-2.4,4.5-2.4c2.5,0,5,1.6,5,6.1v8.4h-3.6v-8
		c0-2-0.8-3.6-2.7-3.6c-1.4,0-2.4,1-2.8,2.1c-0.1,0.3-0.2,0.7-0.2,1.1v8.3H234V106.5z"/>
	<path fill="#005380" d="M249.7,113.1c0.8,0.5,2.3,1,3.6,1c1.6,0,2.3-0.7,2.3-1.6c0-1-0.6-1.4-2.3-2.1c-2.8-0.9-3.9-2.4-3.9-4.1
		c0-2.5,2.1-4.4,5.3-4.4c1.6,0,2.9,0.4,3.8,0.8l-0.7,2.5c-0.6-0.3-1.7-0.8-3-0.8c-1.3,0-2,0.6-2,1.5c0,0.9,0.7,1.3,2.5,2
		c2.6,0.9,3.7,2.2,3.8,4.3c0,2.6-2,4.4-5.7,4.4c-1.7,0-3.2-0.4-4.3-1L249.7,113.1z"/>
</g>
</svg>
